<svg xmlns="http://www.w3.org/2000/svg" version="1.1" xmlns:xlink="http://www.w3.org/1999/xlink" xmlns:svgjs="http://svgjs.dev/svgjs" width="1000" height="169" viewBox="0 0 1000 169"><g transform="matrix(1,0,0,1,-0.6060606060606233,0.39250487571121084)"><svg viewBox="0 0 396 67" data-background-color="#ffffff" preserveAspectRatio="xMidYMid meet" height="169" width="1000" xmlns="http://www.w3.org/2000/svg" xmlns:xlink="http://www.w3.org/1999/xlink"><g id="tight-bounds" transform="matrix(1,0,0,1,0.2400000000000091,-0.15560844185000633)"><svg viewBox="0 0 395.52 67.31121688370003" height="67.31121688370003" width="395.52"><g><svg viewBox="0 0 395.52 67.31121688370003" height="67.31121688370003" width="395.52"><g><svg viewBox="0 0 395.52 67.31121688370003" height="67.31121688370003" width="395.52"><g id="textblocktransform"><svg viewBox="0 0 395.52 67.31121688370003" height="67.31121688370003" width="395.52" id="textblock"><g><svg viewBox="0 0 395.52 67.31121688370003" height="67.31121688370003" width="395.52"><g><svg viewBox="0 0 395.52 67.31121688370003" height="67.31121688370003" width="395.52"><g transform="matrix(1,0,0,1,0,0)"><svg width="395.52" viewBox="2.85 -37.5 222.69 37.9" height="67.31121688370003" data-palette-color="#ffc832"><path d="M33.75-18L33.75-3.2Q33-2.55 31.65-1.9 30.3-1.25 28.63-0.75 26.95-0.25 25.2 0.08 23.45 0.4 21.9 0.4L21.9 0.4Q17.5 0.4 14-0.95 10.5-2.3 8-4.7 5.5-7.1 4.17-10.33 2.85-13.55 2.85-17.35L2.85-17.35Q2.85-22 4.35-25.6 5.85-29.2 8.43-31.68 11-34.15 14.38-35.43 17.75-36.7 21.45-36.7L21.45-36.7Q24.7-36.7 27.48-35.95 30.25-35.2 32.25-34L32.25-34 30.5-29.1Q29.5-29.65 28.03-30.18 26.55-30.7 25-31 23.45-31.3 22.15-31.3L22.15-31.3Q18.95-31.3 16.43-30.38 13.9-29.45 12.1-27.7 10.3-25.95 9.33-23.45 8.35-20.95 8.35-17.8L8.35-17.8Q8.35-14.95 9.35-12.58 10.35-10.2 12.15-8.47 13.95-6.75 16.45-5.83 18.95-4.9 22-4.9L22-4.9Q23.75-4.9 25.45-5.25 27.15-5.6 28.35-6.25L28.35-6.25 28.35-12.85 21.35-12.85 21.35-18 33.75-18ZM51.05 0L51.05-11.95 37.6-36.3 44.2-36.3 54.65-16.5 53.05-16.4 63.4-36.3 69.95-36.3 56.4-11.95 56.4 0 51.05 0ZM81.5 0L76.34 0 76.34-37.5 76.4-37.5 95.7-10.15 93.4-10.65 112.59-37.5 112.7-37.5 112.7 0 107.4 0 107.4-25.45 107.75-22.7 94.34-3.75 94.25-3.75 80.59-22.7 81.5-25.2 81.5 0ZM122.89-36.3L132.54-36.3Q138.04-36.3 141.22-34.05 144.39-31.8 144.39-27.15L144.39-27.15Q144.39-24.15 143.02-22 141.64-19.85 139.22-18.68 136.79-17.5 133.49-17.35L133.49-17.35 132.69-20.2Q136.54-20.1 139.57-18.88 142.59-17.65 144.37-15.48 146.14-13.3 146.14-10.3L146.14-10.3Q146.14-7.55 145.12-5.58 144.09-3.6 142.37-2.38 140.64-1.15 138.47-0.58 136.29 0 133.94 0L133.94 0 122.89 0 122.89-36.3ZM128.24-20.6L133.49-20.6Q136.29-20.6 137.59-22.2 138.89-23.8 138.89-26L138.89-26Q138.89-28.7 137.22-29.93 135.54-31.15 132.79-31.15L132.79-31.15 128.24-31.15 128.24-20.6ZM128.24-4.95L133.69-4.95Q135.64-4.95 137.22-5.53 138.79-6.1 139.72-7.28 140.64-8.45 140.64-10.25L140.64-10.25Q140.64-12.25 139.57-13.38 138.49-14.5 136.82-14.98 135.14-15.45 133.34-15.45L133.34-15.45 128.24-15.45 128.24-4.95ZM151.84-18.1L151.84-18.1Q151.84-21.85 153.27-25.2 154.69-28.55 157.24-31.15 159.79-33.75 163.14-35.23 166.49-36.7 170.34-36.7L170.34-36.7Q174.14-36.7 177.49-35.23 180.84-33.75 183.44-31.15 186.04-28.55 187.49-25.2 188.94-21.85 188.94-18.1L188.94-18.1Q188.94-14.25 187.49-10.9 186.04-7.55 183.47-5 180.89-2.45 177.52-1.03 174.14 0.4 170.34 0.4L170.34 0.4Q166.49 0.4 163.14-1 159.79-2.4 157.24-4.93 154.69-7.45 153.27-10.83 151.84-14.2 151.84-18.1ZM157.34-18.1L157.34-18.1Q157.34-15.3 158.37-12.88 159.39-10.45 161.19-8.63 162.99-6.8 165.37-5.78 167.74-4.75 170.49-4.75L170.49-4.75Q173.19-4.75 175.54-5.78 177.89-6.8 179.67-8.63 181.44-10.45 182.44-12.88 183.44-15.3 183.44-18.1L183.44-18.1Q183.44-20.9 182.42-23.33 181.39-25.75 179.62-27.6 177.84-29.45 175.47-30.5 173.09-31.55 170.39-31.55L170.39-31.55Q167.59-31.55 165.24-30.5 162.89-29.45 161.09-27.6 159.29-25.75 158.31-23.3 157.34-20.85 157.34-18.1ZM203.39 0L203.39-11.95 189.94-36.3 196.54-36.3 206.99-16.5 205.39-16.4 215.74-36.3 222.29-36.3 208.74-11.95 208.74 0 203.39 0ZM219.94-2.85L219.94-2.85Q219.94-4.05 220.81-4.88 221.69-5.7 222.79-5.7L222.79-5.7Q223.79-5.7 224.66-4.88 225.54-4.05 225.54-2.85L225.54-2.85Q225.54-1.55 224.66-0.78 223.79 0 222.79 0L222.79 0Q221.69 0 220.81-0.78 219.94-1.55 219.94-2.85L219.94-2.85Z" opacity="1" transform="matrix(1,0,0,1,0,0)" fill="#ffc832" class="wordmark-text-0" data-fill-palette-color="primary" id="text-0"></path></svg></g></svg></g></svg></g></svg></g></svg></g></svg></g><defs></defs></svg><rect width="395.52" height="67.31121688370003" fill="none" stroke="none" visibility="hidden"></rect></g></svg></g></svg>